<svg id="Carotv" xmlns="http://www.w3.org/2000/svg" xmlns:xlink="http://www.w3.org/1999/xlink" viewBox="0 0 800 800"><defs><style>.cls-1{fill:url(#New_Gradient_Swatch_1);}.cls-2{fill:url(#New_Gradient_Swatch_1-2);}.cls-3{fill:url(#New_Gradient_Swatch_1-3);}.cls-4{fill:url(#New_Gradient_Swatch_1-4);}.cls-5{fill:url(#New_Gradient_Swatch_1-5);}.cls-6{fill:url(#New_Gradient_Swatch_1-6);}.cls-7{fill:url(#New_Gradient_Swatch_1-7);}.cls-8{fill:url(#New_Gradient_Swatch_1-8);}.cls-9{fill:url(#New_Gradient_Swatch_1-9);}.cls-10{fill:url(#New_Gradient_Swatch_1-10);}.cls-11{fill:url(#New_Gradient_Swatch_1-11);}.cls-12{fill:url(#New_Gradient_Swatch_1-12);}.cls-13{fill:url(#New_Gradient_Swatch_1-13);}.cls-14{fill:url(#New_Gradient_Swatch_1-14);}.cls-15{fill:url(#New_Gradient_Swatch_1-15);}.cls-16{fill:url(#New_Gradient_Swatch_1-16);}</style><linearGradient id="New_Gradient_Swatch_1" x1="229.47" y1="388.09" x2="578.52" y2="389.43" gradientUnits="userSpaceOnUse"><stop offset="0" stop-color="#debc5c"/><stop offset="0.53" stop-color="#faecab"/><stop offset="1" stop-color="#debc5c"/></linearGradient><linearGradient id="New_Gradient_Swatch_1-2" x1="229.48" y1="385.92" x2="578.53" y2="387.25" xlink:href="#New_Gradient_Swatch_1"/><linearGradient id="New_Gradient_Swatch_1-3" x1="229.47" y1="384.55" x2="578.52" y2="385.88" xlink:href="#New_Gradient_Swatch_1"/><linearGradient id="New_Gradient_Swatch_1-4" x1="1.82" y1="391.15" x2="212.76" y2="300.93" xlink:href="#New_Gradient_Swatch_1"/><linearGradient id="New_Gradient_Swatch_1-5" x1="-8.04" y1="368.1" x2="202.9" y2="277.88" xlink:href="#New_Gradient_Swatch_1"/><linearGradient id="New_Gradient_Swatch_1-6" x1="-4.08" y1="377.36" x2="206.86" y2="287.14" xlink:href="#New_Gradient_Swatch_1"/><linearGradient id="New_Gradient_Swatch_1-7" x1="-19.06" y1="342.34" x2="191.87" y2="252.11" xlink:href="#New_Gradient_Swatch_1"/><linearGradient id="New_Gradient_Swatch_1-8" x1="-25.48" y1="327.32" x2="185.45" y2="237.1" xlink:href="#New_Gradient_Swatch_1"/><linearGradient id="New_Gradient_Swatch_1-9" x1="-6.53" y1="371.64" x2="204.41" y2="281.41" xlink:href="#New_Gradient_Swatch_1"/><linearGradient id="New_Gradient_Swatch_1-10" x1="-19.19" y1="342.02" x2="191.74" y2="251.8" xlink:href="#New_Gradient_Swatch_1"/><linearGradient id="New_Gradient_Swatch_1-11" x1="30.13" y1="457.33" x2="241.06" y2="367.11" xlink:href="#New_Gradient_Swatch_1"/><linearGradient id="New_Gradient_Swatch_1-12" x1="3.39" y1="394.82" x2="214.32" y2="304.59" xlink:href="#New_Gradient_Swatch_1"/><linearGradient id="New_Gradient_Swatch_1-13" x1="610.06" y1="375.25" x2="769.9" y2="375.25" xlink:href="#New_Gradient_Swatch_1"/><linearGradient id="New_Gradient_Swatch_1-14" x1="688.48" y1="395.12" x2="754.48" y2="395.12" xlink:href="#New_Gradient_Swatch_1"/><linearGradient id="New_Gradient_Swatch_1-15" x1="625.22" y1="395.2" x2="679.42" y2="395.2" xlink:href="#New_Gradient_Swatch_1"/><linearGradient id="New_Gradient_Swatch_1-16" x1="642.56" y1="477.07" x2="737.4" y2="477.07" xlink:href="#New_Gradient_Swatch_1"/></defs><path class="cls-1" d="M317.05,430.14h-1.73a48,48,0,0,1-12,10.4q-7.05,4.32-18.09,4.33a43.8,43.8,0,0,1-15.49-2.71A40.33,40.33,0,0,1,257,434.69a33.44,33.44,0,0,1-8.45-11.49,35.35,35.35,0,0,1-3-14.73,33.14,33.14,0,0,1,3.25-14.84,33.85,33.85,0,0,1,9.1-11.37A41,41,0,0,1,271.66,375a57.17,57.17,0,0,1,17.23-2.49A74.94,74.94,0,0,1,306,374.13a83.54,83.54,0,0,1,11,3.36v-3.25a17.31,17.31,0,0,0-6.71-14q-6.72-5.53-16.68-5.53-14.75,0-24.92,12.35L248.16,353q16.91-21.24,46.15-21.23,24.69,0,37.69,11.59t13,34.34V441.4H317.05Zm0-31.85a58.56,58.56,0,0,0-10.29-3.79,45.05,45.05,0,0,0-11.59-1.41q-10.19,0-15.7,4.44a13.53,13.53,0,0,0-5.53,10.94,12.26,12.26,0,0,0,5.31,10.4,20.11,20.11,0,0,0,12.24,3.9A26.12,26.12,0,0,0,310,415.3a24.16,24.16,0,0,0,7-17Z"/><path class="cls-2" d="M375.36,335.24H402V350h1.73a27.6,27.6,0,0,1,5.2-7.14,37.59,37.59,0,0,1,7.26-5.67,40.52,40.52,0,0,1,8.67-3.9,30.12,30.12,0,0,1,9.2-1.48,34,34,0,0,1,9.65,1.2,24.59,24.59,0,0,1,6.82,3.13L443,361.46a27.19,27.19,0,0,0-5.74-2.06,33.14,33.14,0,0,0-7.7-.76,24.27,24.27,0,0,0-10.61,2.29,23.4,23.4,0,0,0-8.13,6.42,30.17,30.17,0,0,0-5.19,9.7,38.1,38.1,0,0,0-1.85,12.08V441.4H375.36Z"/><path class="cls-3" d="M515.13,329.09a59.19,59.19,0,0,1,22.64,4.22A53.75,53.75,0,0,1,555.53,345a53.16,53.16,0,0,1,11.7,17.88,63.27,63.27,0,0,1,0,45.49,53.16,53.16,0,0,1-11.7,17.88A53.75,53.75,0,0,1,537.77,438a62.87,62.87,0,0,1-45.29,0A52.51,52.51,0,0,1,463,408.38a63.41,63.41,0,0,1,0-45.49,52.51,52.51,0,0,1,29.46-29.58A59.24,59.24,0,0,1,515.13,329.09Zm0,86.88a27.82,27.82,0,0,0,10.5-2.06,26.85,26.85,0,0,0,9-6,28.32,28.32,0,0,0,6.17-9.53,37,37,0,0,0,0-25.57,28.32,28.32,0,0,0-6.17-9.53,27,27,0,0,0-9-6,28.1,28.1,0,0,0-21.12,0,27.22,27.22,0,0,0-8.88,6,28.34,28.34,0,0,0-6.18,9.53,37.14,37.14,0,0,0,0,25.57,28.34,28.34,0,0,0,6.18,9.53,27.07,27.07,0,0,0,8.88,6A27.57,27.57,0,0,0,515.13,416Z"/><path class="cls-4" d="M84.51,340.81c-4.9,6.67-3.13,15.52,1,21.21,2,2.77,4.58,4.54,8.15,4.5a4.42,4.42,0,0,0,.92-.09,2,2,0,0,0,1.58-1.94c.61-4.32,1.43-8.61,2-12.93a2.67,2.67,0,0,0-.68-2,.53.53,0,0,0-.12-.1C93.17,346.53,88.9,343.74,84.51,340.81Z"/><path class="cls-5" d="M112,306.5c-.78,7.3-4.15,12-11.21,14.44-3.48,1.2-4.14,4.66-3.77,8.14a9.23,9.23,0,0,0,4.62,7.39c.31.18.63.36,1,.53,3.65-8.75,8.13-16.69,14.55-23.43a2.23,2.23,0,0,0,.35-1.51,3.84,3.84,0,0,0-.12-.8,17.87,17.87,0,0,1,1-13.47C115.18,299.66,112.42,302.79,112,306.5Z"/><path class="cls-6" d="M131.29,302.64a9,9,0,0,1,5.85-2.45c.27,0,.55,0,.83,0a20.71,20.71,0,0,1,5.66.71,32.16,32.16,0,0,1,15.22,6.47,44.72,44.72,0,0,0-31.58-16.05c-1.48-.1-3-.14-4.51-.11-14.46.32-26.42,5.79-35.46,17.27A59.38,59.38,0,0,0,76.71,330c-.28,1-.54,2.09-.78,3.13-2.08,9-2.57,18.07.34,27.13,1.79,5.58,4.82,10.12,10.89,11.77,2.79.76,5.25.45,6.92-.77a5.15,5.15,0,0,0,1.72-2.15,11,11,0,0,1-1.55.27c-3.7.4-6.81-1.13-9.34-3.85-5-5.38-7.26-11.91-5.63-19.09.89-3.91,3.22-7.49,5-11.4a8.67,8.67,0,0,1,1.2,1,31.84,31.84,0,0,0,12.7,10.92,38.28,38.28,0,0,0,12.44,3.34c5.28.55,9.15-1.62,10.88-5.59,1.06-2.44.64-5.74-1-7.09-2.14-1.72-4.38-1.4-6.58-.06a19.17,19.17,0,0,1-3.82,2.26c-1.86.57-4,1.19-5.81.86a11.57,11.57,0,0,1-3.65-1.36,13.12,13.12,0,0,1-6.4-10.61c-.26-5.21,1.19-8.72,7.31-11.11,4.54-1.77,6.55-4.66,7.28-9.47.93-6.09,3.88-11.32,10.19-13.56a52,52,0,0,1,7.28-1.54l.55.84c-6.8,3.92-8.9,9.4-6.8,16,.2.63.44,1.27.71,1.92,1.77,4.18,6.67,5.94,13.19,5-.73-.54-1.09-.77-1.41-1-3.31-2.78-4.51-6.37-3.29-9.78A8.82,8.82,0,0,1,131.29,302.64Z"/><path class="cls-7" d="M64.39,320.59a26,26,0,0,0,9.36-5c5.71-4.46,10.84-9.67,16.6-14.05,11.17-8.49,23.48-13.84,38-12.07.09,0,.2-.2.37-.4-6.09-2.17-12.19-2-18.3-.48a63.64,63.64,0,0,0-24.09,11.76,25.85,25.85,0,0,1-8,3.76c-2.85.91-5.92.63-7.94-1.9-2.21-2.77-2.08-6-.81-9.22.94-2.36,2.84-3.06,5.08-2.7A3.63,3.63,0,0,1,77,292c.2.39-.64,1.65-1.29,2.14-1.76,1.3-1.82,2.75-.53,4.23A3.82,3.82,0,0,0,81.59,297c.94-2.65-.35-5.53-3.15-7-4.69-2.46-10.87-.11-13.46,5.11-2.49,5-.43,11.41,4.76,13.51,2.39,1,5.19.93,7.9,1.36-3.31,3.93-13.55,8.22-18.48,7.52A12.14,12.14,0,0,1,55,316c-2.75-1.57-3.08-3.72-.93-6a25.3,25.3,0,0,1,3.48-2.74,6,6,0,0,0,1.92-6.82c-1-2.31-3.36-3.36-6.15-2.74-4.24,1-6.91,4.27-7,8.94C46.05,316.75,55.58,322.76,64.39,320.59Z"/><path class="cls-8" d="M95.16,285.65a57.11,57.11,0,0,1,30.08-5.38,2.4,2.4,0,0,0,1.93-1.23c1.41-6.34,2.48-12.77,5.91-18.61a21.47,21.47,0,0,0-3.56,2.44,10.12,10.12,0,0,1-2,1.08c-.72.31-2,.42-2.1.78a6.49,6.49,0,0,0,.48,2.87c.17.53,1,1.21.91,1.4-1.1,1.71-2.09,3.69-3.66,4.81-.76.55-3.24-.12-4-1-1.37-1.63-2.64-3.69-1.07-6.17.45-.73.2-2.05-.07-3-.07-.27-1.9-.43-2-.28a13.24,13.24,0,0,0-.59,3c-.12,1.07.21,2.39-.3,3.2-3,4.85-6.92,4.72-9.85-.21-.52-.87-.89-1.84-1.33-2.76l.68.11c.57-1,1.78-2.24,1.54-3-.32-1-1.76-1.74-2.89-2.74.67-2.86.67-2.86-2.61-5.14-1.38,2.12-2.75,4.26-.39,5.91-.7,1.46-1.83,2.74-1.64,3.77.17.86,1.88,1.43,3.51,2.54a35.56,35.56,0,0,1-1.38,5.85,3.88,3.88,0,0,1-5.23,2.27c-1.88-.67-4.87-.54-4.17-4.14.12-.6-.8-1.63-1.48-2.05-.33-.2-1.77.54-1.79.92a3.89,3.89,0,0,0,.7,2.78c2,2,2.87,4.74,1.68,7.16-1,2.09-2.79,2.53-4.86,1.83-2.75-.93-3.55-2.36-3.08-4.56a3.11,3.11,0,0,0-.77-2.45c-.32-.33-1.47.09-2.22.29a1.18,1.18,0,0,0-.57.4l-5.46-1.37,13.32,15.23C89.5,288.72,92.27,287.05,95.16,285.65Z"/><path class="cls-9" d="M65.65,353.85c2.07,1.58,4,3.37,6,5.15-3.78-15.13-.68-29.18,6.4-42.74-8.49,6.94-18.32,10.31-29.84,11.12,5.8,3.21,11,4,16.67,2a54.18,54.18,0,0,1-3.74,4.6c-1.21,1.4-2,2.81.49,3.82-1.68,2.61-3,5.12-1.78,8.24l2.9-.57C61,349.46,62.91,351.77,65.65,353.85Z"/><path class="cls-10" d="M124.61,282.83A54.51,54.51,0,0,0,89,291.88c-.67.44-1,1.37-1.51,2.07a7.55,7.55,0,0,0,2.49-.49,60.54,60.54,0,0,1,32.68-8.86c.53,0,1.84.2,3.14.19a4.27,4.27,0,0,0,1.48-.65A9,9,0,0,0,125.9,283,3.59,3.59,0,0,0,124.61,282.83Z"/><path class="cls-11" d="M225.32,429.15Q208.73,452,194.9,459.63T163,467.3q-20.83,0-37.06-9.78t-24.32-28.1q-8.09-18.33-8.08-43.31c0-.3.16-3,.32-5.56.15-2.44.29-4.81.3-5.1h0l-.33.06a30.64,30.64,0,0,1-3.28.52c-5.92.48-10.3-2.56-14.31-6.4L65.63,359.45a115.36,115.36,0,0,0-3.16,33.07,119.66,119.66,0,0,0,2.89,20.84c3.15,10.39,9.26,23.17,15.82,31.94q25.35,33.94,71.52,33.95,25.62,0,44.26-11.41t32.6-36Z"/><path class="cls-12" d="M159,296.5q22.07,0,37.82,12.36t24.25,40.46h4.25l-4.25-62.6h-4.8a21,21,0,0,1-5.07,10.19,9.07,9.07,0,0,1-6.43,2.58q-2.47,0-8.23-3a88.09,88.09,0,0,0-39.73-9.78,97.15,97.15,0,0,0-22.07,2.49c3.88.77,9.72,2.74,16.82,7.69A67.34,67.34,0,0,1,159,296.5Z"/><path class="cls-13" d="M683.6,308.64c-4-4.32-7.57-8.29-11.29-12.09-2-2.1-3.77-4.26-1.26-6.84s5-1.2,7.22,1c4.65,4.55,9.37,9,14.23,13.68,5.13-4.89,10-9.48,14.76-14.1,1.8-1.74,3.76-2.65,6.07-1.13s2.17,4.29-.26,6.85c-3.84,4-7.67,8.09-11.84,12.5,1.48.07,2.85.2,4.23.2,10.94.05,21.89,0,32.83.12,18.85.15,31.53,13,31.56,31.87q.06,45.3,0,90.59c0,17.34-13.21,30.79-30.59,30.86q-49.26.18-98.51,0c-17.11-.07-30.42-12.95-30.55-30.05-.24-32.06-.31-64.12.24-96.18.24-13.93,12.76-26.14,26.75-26.81s28.29-.34,42.43-.44ZM689.85,455v0c16.15,0,32.3.07,48.45,0,14.89-.09,24.46-9.82,24.47-24.71q0-44.49,0-89c0-15.87-9.37-25.49-25.32-25.53q-47.44-.15-94.89.09A30.44,30.44,0,0,0,632,317.65c-9.86,3.76-14.76,11.76-14.78,23.35q-.06,44.08,0,88.17c0,16.43,9.3,25.82,25.8,25.86C658.62,455.07,674.24,455,689.85,455Z"/><path class="cls-14" d="M688.48,358.74c4.91,0,9-.18,13.13.14,1,.07,2.24,1.67,2.63,2.82,5.41,15.93,10.69,31.9,16,47.85.2.58.49,1.13,1,2.31,3-8.49,5.68-16.37,8.45-24.22,3-8.43,6.15-16.81,9-25.29.93-2.8,2.34-3.79,5.21-3.59,3.3.22,6.63.05,10.58.05-1,3.13-1.81,5.76-2.75,8.34-7.31,20.22-14.7,40.41-21.92,60.66-1,2.66-2.17,3.74-5.12,3.74-10.69,0-10.67.09-14.23-10q-10-28.53-20.08-57.06C689.82,362.85,689.3,361.23,688.48,358.74Z"/><path class="cls-15" d="M645.45,431.46v-9.81q0-21.84,0-43.69c0-6.16,0-6.16-6.34-6.2l-12.41-.06a7.9,7.9,0,0,1-1.43-.45c0-3.31-.13-6.86.11-10.39a3.1,3.1,0,0,1,2.26-2c17.06-.11,34.12-.09,51.75-.09,0,3.86.18,7.43-.14,11-.07.79-1.86,2-2.91,2-4.12.22-8.27,0-12.41.06-1.43,0-2.86.14-4.72.24v4.68c0,16.57-.16,33.14.09,49.71.06,4.19-1.28,5.45-5.23,5C651.33,431.24,648.55,431.46,645.45,431.46Z"/><rect class="cls-16" x="642.56" y="473.11" width="94.84" height="7.91" rx="0.77"/></svg>