<svg width="20" height="22" viewBox="0 0 20 22" fill="none" xmlns="http://www.w3.org/2000/svg">
<path d="M2.4223 21.0833V19.5555H17.5779V21.0833H2.4223ZM2.4223 2.44439V0.916626H17.5779V2.44439H2.4223ZM10.0001 11.8555C10.764 11.8555 11.4082 11.5932 11.9327 11.0687C12.4573 10.5442 12.7195 9.89997 12.7195 9.13608C12.7195 8.37219 12.4573 7.72797 11.9327 7.20342C11.4082 6.67889 10.764 6.41663 10.0001 6.41663C9.2362 6.41663 8.59199 6.67889 8.06745 7.20342C7.54291 7.72797 7.28063 8.37219 7.28063 9.13608C7.28063 9.89997 7.54291 10.5442 8.06745 11.0687C8.59199 11.5932 9.2362 11.8555 10.0001 11.8555ZM2.23897 18.3333C1.82647 18.3333 1.46872 18.1818 1.16571 17.8788C0.862691 17.5758 0.711182 17.218 0.711182 16.8055V5.19439C0.711182 4.76152 0.862691 4.39868 1.16571 4.10587C1.46872 3.81304 1.82647 3.66663 2.23897 3.66663H17.7612C18.1737 3.66663 18.5315 3.81813 18.8345 4.12113C19.1375 4.42414 19.289 4.78189 19.289 5.19439V16.8055C19.289 17.218 19.1375 17.5758 18.8345 17.8788C18.5315 18.1818 18.1737 18.3333 17.7612 18.3333H2.23897ZM4.11813 16.8055H15.882C15.1538 15.8787 14.2626 15.1733 13.2084 14.6895C12.1543 14.2058 11.0848 13.9639 10.0001 13.9639C8.90517 13.9639 7.83827 14.2058 6.79938 14.6895C5.7605 15.1733 4.86675 15.8787 4.11813 16.8055Z" fill="white"/>
</svg>
