<svg width="25" height="25" viewBox="0 0 25 25" fill="none" xmlns="http://www.w3.org/2000/svg">
<path d="M13.0002 5C12.8458 4.99996 13.1429 4.94093 13.0002 5C12.8576 5.05907 12.1094 4.89082 12.0002 5C11.891 5.10918 12.0593 5.85735 12.0002 6C11.9412 6.14265 12.0002 5.8456 12.0002 6V11L9.00022 13C8.86234 13.0694 9.10106 12.8832 9.00022 13C8.89938 13.1168 8.04868 12.8535 8.00022 13C7.95177 13.1465 7.98891 13.8461 8.00022 14C8.01153 14.1539 7.93087 13.8621 8.00022 14C8.06957 14.1379 8.88338 14.8992 9.00022 15C9.11706 15.1008 8.85369 14.9515 9.00022 15C9.14676 15.0485 9.8463 15.0113 10.0002 15C10.1541 14.9887 9.86234 15.0694 10.0002 15L14.0002 13C14.1949 12.9023 13.8859 13.1854 14.0002 13C14.1146 12.8146 14.0003 12.2178 14.0002 12V6C14.0003 5.8456 14.0593 6.14265 14.0002 6C13.9412 5.85735 14.1094 5.10918 14.0002 5C13.891 4.89082 13.1429 5.05907 13.0002 5C13.1546 4.99996 12.8576 4.94093 13.0002 5ZM13.0002 0C10.675 0 7.93355 0.708192 6.00022 2C4.06689 3.29181 2.89003 4.8518 2.00022 7C1.11041 9.1482 0.546598 11.7195 1.00022 14C1.45384 16.2805 3.35606 18.3558 5.00022 20C6.64438 21.6442 8.71971 23.5464 11.0002 24C13.2807 24.4536 15.852 23.8898 18.0002 23C20.1484 22.1102 21.7084 20.9333 23.0002 19C24.292 17.0667 25.0002 14.3252 25.0002 12C24.9967 8.88311 23.2042 6.20398 21.0002 4C18.7962 1.79602 16.1171 0.00356583 13.0002 0ZM13.0002 22C11.1401 22 9.54688 21.0334 8.00022 20C6.45356 18.9666 4.71207 17.7186 4.00022 16C3.28837 14.2814 3.63732 11.8244 4.00022 10C4.36312 8.17559 4.68489 6.31533 6.00022 5C7.31555 3.68467 9.17581 3.3629 11.0002 3C12.8246 2.6371 15.2817 2.28815 17.0002 3C18.7188 3.71185 19.9668 5.45334 21.0002 7C22.0337 8.54666 23.0002 10.1398 23.0002 12C22.9974 14.4935 21.7634 17.2368 20.0002 19C18.237 20.7632 15.4937 21.9971 13.0002 22Z" fill="#FF4A4A"/>
</svg>
