<svg width="19" height="21" viewBox="0 0 19 21" fill="none" xmlns="http://www.w3.org/2000/svg">
<path d="M13.8972 15.8819C14.3415 15.8819 14.7191 15.7213 15.03 15.4001C15.341 15.079 15.4965 14.6962 15.4965 14.252C15.4965 13.8078 15.341 13.4302 15.03 13.1192C14.7191 12.8082 14.3415 12.6527 13.8972 12.6527C13.453 12.6527 13.0703 12.8082 12.7491 13.1192C12.4279 13.4302 12.2673 13.8078 12.2673 14.252C12.2673 14.6962 12.4279 15.079 12.7491 15.4001C13.0703 15.7213 13.453 15.8819 13.8972 15.8819ZM13.8732 19.0937C14.4404 19.0937 14.9554 18.9707 15.4184 18.7248C15.8813 18.4788 16.2691 18.136 16.5816 17.6962C16.1533 17.4589 15.7166 17.2795 15.2715 17.1579C14.8263 17.0364 14.3634 16.9757 13.8826 16.9757C13.4018 16.9757 12.9357 17.0364 12.4843 17.1579C12.0329 17.2795 11.5989 17.4589 11.1823 17.6962C11.4948 18.136 11.8796 18.4788 12.3368 18.7248C12.7939 18.9707 13.3061 19.0937 13.8732 19.0937ZM13.9253 20.9166C12.548 20.9166 11.3718 20.4262 10.3967 19.4453C9.42156 18.4644 8.934 17.2939 8.934 15.934C8.934 14.5458 9.4215 13.3626 10.3965 12.3842C11.3715 11.4058 12.5507 10.9166 13.934 10.9166C15.3055 10.9166 16.4817 11.4058 17.4626 12.3842C18.4435 13.3626 18.934 14.5458 18.934 15.934C18.934 17.2939 18.4435 18.4644 17.4626 19.4453C16.4817 20.4262 15.3026 20.9166 13.9253 20.9166ZM8.49996 20.9166C6.09835 20.3437 4.10905 18.9765 2.53207 16.8151C0.955107 14.6536 0.166626 12.2013 0.166626 9.45829V3.19092L8.49996 0.065918L16.8333 3.19092V9.84894C16.3935 9.63482 15.9233 9.46989 15.4227 9.35415C14.9221 9.2384 14.4259 9.18053 13.934 9.18053C12.0735 9.18053 10.4857 9.8398 9.17061 11.1583C7.85547 12.4769 7.1979 14.0687 7.1979 15.934C7.1979 16.8483 7.37874 17.7164 7.74043 18.5382C8.10211 19.3599 8.58388 20.0746 9.18574 20.6822C9.07579 20.7401 8.9615 20.785 8.84285 20.8168C8.7242 20.8486 8.60991 20.8819 8.49996 20.9166Z" fill="white"/>
</svg>
